<svg width="98" height="98" viewBox="0 0 98 98" fill="none" xmlns="http://www.w3.org/2000/svg">
<path opacity="0.5" d="M97 49C97 75.5097 75.5097 97 49 97C22.4903 97 1 75.5097 1 49C1 22.4903 22.4903 1 49 1C75.5097 1 97 22.4903 97 49ZM5.70166 49C5.70166 72.913 25.087 92.2983 49 92.2983C72.913 92.2983 92.2983 72.913 92.2983 49C92.2983 25.087 72.913 5.70166 49 5.70166C25.087 5.70166 5.70166 25.087 5.70166 49Z" fill="#F68080"/>
<path d="M94.7956 49C96.5653 49 98.0109 50.4365 97.8953 52.2025C97.1212 64.0288 92.0798 75.2167 83.6482 83.6482C74.4589 92.8375 61.9956 98 49 98C36.0044 98 23.541 92.8375 14.3518 83.6482C5.92024 75.2167 0.878789 64.0288 0.104673 52.2025C-0.0109199 50.4365 1.43466 49 3.2044 49C4.97414 49 6.39625 50.4368 6.5292 52.2015C7.29204 62.3265 11.6541 71.8871 18.8835 79.1165C26.8709 87.1039 37.7041 91.5912 49 91.5912C60.2959 91.5912 71.1291 87.1039 79.1165 79.1165C86.3459 71.8872 90.708 62.3265 91.4708 52.2015C91.6037 50.4368 93.0259 49 94.7956 49Z" fill="#FF4948"/>
<circle cx="48.5" cy="48.5" r="34.5" stroke="#FDD8D8" stroke-width="2" stroke-linecap="round"/>
<path d="M60.3377 57.1459H53.1042C52.7049 57.1459 52.3809 56.8218 52.3809 56.4226C52.3809 56.0233 52.7049 55.6992 53.1042 55.6992H60.3377C61.5342 55.6992 62.5078 54.7256 62.5078 53.5291V52.0824C62.5078 51.6831 62.8319 51.3591 63.2312 51.3591H64.6648C65.0641 51.3591 65.3882 51.035 65.3882 50.6357V41.9555C65.3882 41.5562 65.0641 41.2321 64.6648 41.2321H63.2312C62.8319 41.2321 62.5078 40.9081 62.5078 40.5088V39.0621C62.5078 37.8657 61.5342 36.892 60.3377 36.892H55.9976C55.5983 36.892 55.2743 36.568 55.2743 36.1687C55.2743 35.7694 55.5983 35.4453 55.9976 35.4453H60.3377C62.3313 35.4453 63.9545 37.0685 63.9545 39.0621V39.7854H64.6648C65.8613 39.7854 66.8349 40.7591 66.8349 41.9555V50.6357C66.8349 51.8322 65.8613 52.8058 64.6648 52.8058H63.9545V53.5291C63.9545 55.5227 62.3313 57.1459 60.3377 57.1459Z" fill="#FF4948"/>
<path d="M41.4036 57.1459H35.6168C33.6232 57.1459 32 55.5227 32 53.5291V39.0621C32 37.0685 33.6232 35.4453 35.6168 35.4453H45.7437C46.143 35.4453 46.4671 35.7694 46.4671 36.1687C46.4671 36.568 46.143 36.892 45.7437 36.892H35.6168C34.4203 36.892 33.4467 37.8657 33.4467 39.0621V53.5291C33.4467 54.7256 34.4203 55.6992 35.6168 55.6992H41.4036C41.8029 55.6992 42.1269 56.0233 42.1269 56.4226C42.1269 56.8218 41.8029 57.1459 41.4036 57.1459Z" fill="#FF4948"/>
<path d="M45.5218 60.0394C45.4075 60.0394 45.2904 60.0119 45.1833 59.9554C44.8723 59.7905 44.7247 59.4245 44.8361 59.0889L47.8655 49.9124H42.1901C41.921 49.9124 41.675 49.7634 41.5492 49.5247C41.4248 49.286 41.4421 48.9981 41.5955 48.7767L51.6154 34.3097C51.8121 34.0261 52.1868 33.9248 52.4993 34.0579C52.8161 34.1968 52.9912 34.5397 52.9174 34.8768L50.8804 44.1256H56.6571C56.932 44.1256 57.1837 44.2818 57.3067 44.5292C57.4282 44.7766 57.3979 45.0717 57.23 45.2902L46.0947 59.7572C45.9544 59.941 45.7403 60.0394 45.5218 60.0394ZM43.5717 48.4657H48.8666C49.0995 48.4657 49.3165 48.5771 49.4525 48.7652C49.5885 48.9532 49.6261 49.1948 49.5524 49.4162L47.5414 55.5054L55.1873 45.5723H49.9806C49.7621 45.5723 49.5538 45.4725 49.4164 45.3017C49.2789 45.131 49.2269 44.9068 49.2731 44.6927L50.7141 38.1521L43.5717 48.4657Z" fill="#FF4948"/>
</svg>
